<svg width="512" height="512" viewBox="0 0 512 512" fill="none" xmlns="http://www.w3.org/2000/svg">
<path d="M511.843 255.5C511.843 273.5 498.51 287.6 483.398 287.6H454.952L455.574 447.7C455.574 450.5 455.397 453.1 455.13 455.8V472C455.13 494.1 439.218 512 419.573 512H405.35C404.372 512 403.395 511.1 402.417 511.9C401.172 511.1 399.928 512 398.683 512H348.459C328.814 512 312.902 494.1 312.902 472V384C312.902 366.3 300.19 352 284.456 352H227.565C211.831 352 199.119 366.3 199.119 384V472C199.119 494.1 183.208 512 163.562 512H113.871C112.538 512 111.205 511.9 109.871 511.8C108.805 511.9 107.738 512 106.671 512H92.4483C72.8119 512 56.8913 494.1 56.8913 472V360C56.8913 359.1 56.9179 358.1 56.9713 357.2V287.6H28.4901C12.4627 287.6 0 273.5 0 255.5C0 246.5 2.67033 238.5 8.89815 231.5L236.81 8.016C243.032 1.002 250.144 0 256.366 0C262.589 0 269.7 2.004 275.123 7.014L502.065 231.5C509.177 238.5 512.821 246.5 511.843 255.5Z" fill="#121A2E"/>
</svg>
