<svg width="512" height="523" viewBox="0 0 512 523" fill="none" xmlns="http://www.w3.org/2000/svg">
<path d="M240.1 4.30657C249.1 -1.4352 262 -1.4352 271.9 4.30657L443.6 104.6L447.1 106.234V107.154L495.9 135.04C508.5 142.395 514.6 157.513 510.9 171.814C507.2 186.114 494.5 196.125 479.1 196.125H31.1002C17.4902 196.125 4.79524 186.114 1.07124 171.814C-2.65276 157.513 3.52424 142.395 16.1202 135.04L63.1002 107.154V106.234L68.3702 104.6L240.1 4.30657ZM64.0002 228.812H128V424.937H168V228.812H232V424.937H280V228.812H344V424.937H384V228.812H448V429.33C448.6 429.636 449.2 429.126 449.8 430.454L497.8 463.141C509.5 471.109 514.7 486.022 510.6 499.812C506.5 513.602 494.1 523 480 523H32.0002C17.9002 523 5.46024 513.602 1.37324 499.812C-2.71276 486.022 2.51724 471.109 14.2502 463.141L62.2502 430.454C62.8202 429.126 63.4102 429.636 64.0002 429.33V228.812Z" fill="#00B88A"/>
</svg>
