<svg width="512" height="512" viewBox="0 0 512 512" fill="none" xmlns="http://www.w3.org/2000/svg">
<path d="M283.587 104C283.587 117.3 271.351 128 256.143 128C240.934 128 228.699 117.3 228.699 104V24C228.699 10.75 240.934 0 256.143 0C271.351 0 283.587 10.75 283.587 24V104ZM175.87 160H336.416C374.037 160 409.486 181.3 422.521 213.1L454.882 292.4C477.867 300.9 493.99 320.8 493.99 344V480C493.99 497.7 477.638 512 457.398 512H439.102C418.862 512 402.51 497.7 402.51 480V448H109.776V480C109.776 497.7 93.3893 512 73.1837 512H54.8878C34.6822 512 18.2959 497.7 18.2959 480V344C18.2959 320.8 34.3963 300.9 57.3577 292.4L89.7529 213.1C102.754 181.3 137.219 160 175.87 160ZM175.87 224C168.208 224 161.233 228.3 158.717 234.6L136.876 288H375.409L353.569 234.6C350.024 228.3 344.078 224 336.416 224H175.87ZM109.776 392C124.984 392 137.219 381.3 137.219 368C137.219 354.7 124.984 344 109.776 344C94.6242 344 82.3317 354.7 82.3317 368C82.3317 381.3 94.6242 392 109.776 392ZM402.51 344C387.302 344 375.066 354.7 375.066 368C375.066 381.3 387.302 392 402.51 392C417.719 392 429.954 381.3 429.954 368C429.954 354.7 417.719 344 402.51 344ZM8.03763 39.03C18.7533 29.66 36.1344 29.66 46.849 39.03L101.737 87.03C112.451 96.4 112.451 111.6 101.737 120.1C91.0222 130.3 73.6411 130.3 62.9265 120.1L8.03763 72.97C-2.67921 63.6 -2.67921 48.4 8.03763 39.03ZM465.403 39.03C476.151 29.66 493.533 29.66 503.252 39.03C514.916 48.4 514.916 63.6 503.252 72.97L448.364 120.1C438.645 130.3 421.264 130.3 410.515 120.1C399.88 111.6 399.88 96.4 410.515 87.03L465.403 39.03Z" fill="#00B88A"/>
</svg>
