<svg width="512" height="440" viewBox="0 0 512 448" fill="fit" xmlns="http://www.w3.org/2000/svg">
<path d="M39.61 164.8L74.8 64.29C88.27 25.78 124.6 0 165.4 0H346.6C387.4 0 423.7 25.78 437.2 64.29L472.4 164.8C495.6 174.4 512 197.3 512 224V416C512 433.7 497.7 448 480 448H448C430.3 448 416 433.7 416 416V368H96V416C96 433.7 81.67 448 64 448H32C14.33 448 0 433.7 0 416V224C0 197.3 16.36 174.4 39.61 164.8ZM109.1 160H402.9L376.8 85.4C372.3 72.6 360.2 64 346.6 64H165.4C151.8 64 139.7 72.6 135.2 85.4L109.1 160ZM96 224C78.33 224 64 238.3 64 256C64 273.7 78.33 288 96 288C113.7 288 128 273.7 128 256C128 238.3 113.7 224 96 224ZM416 288C433.7 288 448 273.7 448 256C448 238.3 433.7 224 416 224C398.3 224 384 238.3 384 256C384 273.7 398.3 288 416 288Z" fill="#00B88A"/>
</svg>
